Hitman 2007 BluRay 1080p DTS x264-LoNeWoLf

Encoded by Tequila-Bob a.k.a. bobnjeff a.k.a.LoNeWoLf

Source - NTSC BluRay Disc.

 
http://www.imdb.com/title/tt0465494/

Genres:Action | Crime | Drama | Thriller

Rated R for strong bloody violence, language and some sexuality/nudity.

Release Date:21 November 2007 (USA)

Storyline
A gun-for-hire \"Hitman\" is a genetically-engineered, elite assassin known only as Agent 47 hired by a group known only as \'The Organization\' is ensnared in a political conspiracy, which finds him pursued by both Interpol and the Russian military as he treks across Eastern Europe. But even 47 couldn\'t anticipate a \"random equation\" in his life exactitude: the unexpected stirrings of his conscience and the unfamiliar emotions aroused in him by a mysterious Russian woman. 

Cast
Cast overview, first billed only: 
  Timothy Olyphant  ...  Agent 47  
  Dougray Scott  ...  Mike Whittier  
  Olga Kurylenko  ...  Nika Boronina  
  Robert Knepper  ...  Yuri Marklov  
  Ulrich Thomsen  ...  Mikhail Belicoff  
  Henry Ian Cusick  ...  Udre Belicoff  
  Michael Offei  ...  Jenkins  
  Christian Erickson  ...  General Kormarov  
  Eriq Ebouaney  ...  Bwana Ovie  
  Joe Sheridan  ...  Captain Gudnayev  
  James Faulkner  ...  Smith Jamison  
  Jean-Marc Bellu  ...  Hitman #2  
  Nicky Naude  ...  Hitman #3  
  Abdou Sagna  ...  Hitman #4  
  Ilya Nikitenko  ...  Hitman #5 


[img]http://torrent-stats.info/9bc3/a3dac0a7.png[/img]


Format : Matroska 
File size : 8.01 GiB 
Duration : 1h 34mn 
Overall bit rate : 12.2 Mbps 
Encoded date : UTC 2010-11-16 21:34:00 
Writing application : mkvmerge v4.4.0 (\'Die Wiederkehr\') built on Oct 31 2010 21:52:48 
Writing library : libebml v1.0.0 + libmatroska v1.0.0 

Video 
ID : 1 
Format : AVC 
Format/Info : Advanced Video Codec 
Format profile : High@L4.1 
Format settings, CABAC : Yes 
Format settings, ReFrames : 7 frames 
Muxing mode : Container profile=Unknown@4.1 
Codec ID : V_MPEG4/ISO/AVC 
Duration : 1h 34mn 
Bit rate : 10.6 Mbps 
Width : 1 920 pixels 
Height : 816 pixels 
Display aspect ratio : 2.35:1 
Frame rate : 23.976 fps 
Color space : YUV 
Chroma subsampling : 4:2:0 
Bit depth : 8 bits 
Scan type : Progressive 
Bits/(Pixel*Frame) : 0.282 
Stream size : 6.85 GiB (86%) 
Writing library : x264 core 98 r1649 c54c47d 
Encoding settings : cabac=1 / ref=7 / deblock=1:-2:-1 / analyse=0x3:0x133 / me=hex / subme=9 / psy=1 / psy_rd=1.00:0.15 / mixed_ref=1 / me_range=16 / chroma_me=1 / trellis=1 / 8x8dct=1 / cqm=0 / deadzone=21,11 / fast_pskip=0 / chroma_qp_offset=-3 / threads=6 / sliced_threads=0 / nr=0 / decimate=1 / interlaced=0 / constrained_intra=0 / bframes=5 / b_pyramid=2 / b_adapt=1 / b_bias=0 / direct=1 / weightb=1 / weightp=2 / keyint=250 / keyint_min=25 / scenecut=40 / intra_refresh=0 / rc_lookahead=50 / rc=2pass / mbtree=1 / bitrate=10575 / ratetol=1.0 / qcomp=0.60 / qpmin=10 / qpmax=51 / qpstep=4 / cplxblur=20.0 / qblur=0.5 / vbv_maxrate=40000 / vbv_bufsize=30000 / ip_ratio=1.40 / aq=1:1.50 / nal_hrd=none 
Language : English 

Audio 
ID : 2 
Format : DTS 
Format/Info : Digital Theater Systems 
Codec ID : A_DTS 
Duration : 1h 34mn 
Bit rate mode : Constant 
Bit rate : 1 510 Kbps 
Channel(s) : 6 channels 
Channel positions : Front: L C R, Side: L R, LFE 
Sampling rate : 48.0 KHz 
Bit depth : 24 bits 
Video delay : 10ms 
Stream size : 1 018 MiB (12%) 
Title : 3/2+1 
Language : English 

Text #1 
Language : English 
Language : Spanish 
Language : Spanish 
Language : Spanish 
Language : French 
Language : Chinese 
Language : Korean 

Menu Chapters 23






See the full size 1920x816 PNG files at the link below
 
http://s1015.photobucket.com/albums/af279/tequila-bob/Hitman%202007/